<?xml version="1.0" encoding="utf-8"?>
<!-- Generator: Adobe Illustrator 23.0.3, SVG Export Plug-In . SVG Version: 6.00 Build 0)  -->
<svg version="1.1" id="Layer_1" xmlns="http://www.w3.org/2000/svg" xmlns:xlink="http://www.w3.org/1999/xlink" x="0px" y="0px"
	 viewBox="0 0 438.14 409.78" style="enable-background:new 0 0 438.14 409.78;" xml:space="preserve">
<style type="text/css">
	.st0{fill:url(#SVGID_1_);}
</style>
<g>
	<linearGradient id="SVGID_1_" gradientUnits="userSpaceOnUse" x1="219.0715" y1="409.7778" x2="219.0715" y2="9.094947e-13">
		<stop  offset="0" style="stop-color:#C1272D"/>
		<stop  offset="1" style="stop-color:#FF272D"/>
	</linearGradient>
	<path class="st0" d="M203.2,404.57c9.3,6.94,22.05,6.94,31.35,0C342.75,323.8,398.06,250.11,424.7,193.3
		c32.6-69.51,4.24-155.67-66.88-184.59c-55.6-22.59-98.7,4.51-121.34,25.2c-9.94,9.08-25.23,9.05-35.13-0.07
		C178.82,13.1,135.9-14.07,80.32,8.53C9.2,37.44-19.15,123.61,13.44,193.12C40.09,249.92,95.03,323.78,203.2,404.57z"/>
</g>
<g>
	<defs>
		<path id="SVGID_2_" d="M203.2,404.57c9.3,6.94,22.05,6.94,31.35,0C342.75,323.8,398.06,250.11,424.7,193.3
			c32.6-69.51,4.24-155.67-66.88-184.59c-55.6-22.59-98.7,4.51-121.34,25.2c-9.94,9.08-25.23,9.05-35.13-0.07
			C178.82,13.1,135.9-14.07,80.32,8.53C9.2,37.44-19.15,123.61,13.44,193.12C40.09,249.92,95.03,323.78,203.2,404.57z"/>
	</defs>
	<clipPath id="SVGID_3_">
		<use xlink:href="#SVGID_2_"  style="overflow:visible;"/>
	</clipPath>
</g>
<g>
	<defs>
		<path id="SVGID_4_" d="M203.2,404.57c9.3,6.94,22.05,6.94,31.35,0C342.75,323.8,398.06,250.11,424.7,193.3
			c32.6-69.51,4.24-155.67-66.88-184.59c-55.6-22.59-98.7,4.51-121.34,25.2c-9.94,9.08-25.23,9.05-35.13-0.07
			C178.82,13.1,135.9-14.07,80.32,8.53C9.2,37.44-19.15,123.61,13.44,193.12C40.09,249.92,95.03,323.78,203.2,404.57z"/>
	</defs>
	<clipPath id="SVGID_5_">
		<use xlink:href="#SVGID_4_"  style="overflow:visible;"/>
	</clipPath>
</g>
</svg>
